<?xml version="1.0" encoding="utf-8"?>
<!-- Generator: Adobe Illustrator 16.0.4, SVG Export Plug-In . SVG Version: 6.00 Build 0)  -->
<!DOCTYPE svg PUBLIC "-//W3C//DTD SVG 1.1//EN" "http://www.w3.org/Graphics/SVG/1.1/DTD/svg11.dtd">
<svg version="1.1" id="Layer_1" xmlns="http://www.w3.org/2000/svg" xmlns:xlink="http://www.w3.org/1999/xlink" x="0px" y="0px"
	 width="366px" height="141px" viewBox="-62 -14 366 141" enable-background="new -62 -14 366 141" xml:space="preserve">
<path fill="#603813" d="M287.164,57.939c-1.742-2.752-4.27-4.726-7.523-5.865c-2.727-0.958-6.021-1.446-9.801-1.446
	c-4.148,0-7.938,0.549-11.291,1.634c-2.143,0.699-4.152,1.691-6.014,2.904l1.277-4.777h-8.771c-2.14,0-4.265,0-6.351,1.883h-20.795
	h-3.692h-46.617l-1.857,6.898c-0.385-0.787-0.83-1.564-1.387-2.279c-2.35-3.063-5.938-4.97-10.869-5.784l0.197-0.732
	c0.746-2.798-0.918-5.688-3.729-6.444c-0.447-0.125-0.912-0.185-1.375-0.185c-2.379,0-4.475,1.601-5.098,3.898l-0.871,3.278
	c-1.941,0.229-3.797,0.586-5.516,1.092c-3.133,0.929-5.932,2.269-8.309,3.944c-2.191,1.54-4.043,3.381-5.546,5.405
	c-0.704-2.633-2.032-4.838-4.029-6.514c-2.006-1.68-4.564-2.839-7.594-3.442c-2.564-0.516-5.449-0.772-8.574-0.772
	c-2.116,0-4.474,0.229-7.028,0.668c-2.767,0.479-5.498,1.446-8.132,2.861c-2.68,1.447-5.165,3.518-7.372,6.084
	c-0.439,0.518-0.84,1.082-1.238,1.666c-0.418-1.461-0.979-2.801-1.724-3.975c-1.74-2.751-4.27-4.725-7.518-5.865
	c-2.731-0.957-6.032-1.445-9.803-1.445c-4.153,0-7.943,0.549-11.294,1.633c-2.148,0.699-4.149,1.692-6.017,2.909l1.034-3.812h-8.769
	c-2.136,0-3.484,0.322-6.102,1.883H16.319l4.398-17.934h-51.762l-6.137,24.506h12.49l-13.701,50.914h26.595L1.901,59.814h0.872
	l-13.845,50.914h26.05l8.095-30.422c0.552-2.055,1.328-3.686,2.249-4.285c1.031-0.678,2.431-1.037,4.132-1.111
	c-0.536,1.592-1.047,3.244-1.523,5.014c-1.339,5.016-2.092,9.207-2.287,12.816c-0.227,4.119,0.416,7.627,1.916,10.402
	c1.646,3.076,4.279,5.279,7.815,6.553c2.978,1.076,6.616,1.596,11.115,1.596c7.834,0,14.144-2.006,18.756-5.736
	c0.893-0.727,1.728-1.541,2.525-2.404c0.261,0.709,0.551,1.387,0.93,2.027c1.278,2.164,3.204,3.777,5.705,4.809
	c2.145,0.883,4.709,1.305,7.834,1.305c2.823,0,5.556-0.322,8.13-1.391l0.053,0.832h26.131l-1.513-6.109
	c-0.043-0.168-0.078-0.461-0.091-0.803c0.351,0.59,0.745,1.158,1.19,1.697c2.256,2.709,5.717,4.426,10.428,5.229l-0.417,1.56
	c-0.751,2.801,0.929,5.694,3.744,6.459c0.447,0.114,0.9,0.174,1.363,0.174c2.379,0,4.469-1.604,5.084-3.902l1.07-3.967
	c2.006-0.213,3.955-0.547,5.795-1.053c3.154-0.865,6.012-2.217,8.5-3.967c1.639-1.162,3.117-2.523,4.455-3.998
	c0.447,2.041,1.268,3.816,2.504,5.211c1.539,1.74,3.547,2.959,5.975,3.52c1.797,0.406,3.793,0.723,5.939,0.723
	c2.43,0,4.707-0.775,6.828-0.775h21.146h3.696h22.354l8.097-30.422c0.555-2.057,1.325-3.686,2.248-4.285
	c1.034-0.678,2.432-1.037,4.131-1.113c-0.524,1.594-1.047,3.246-1.515,5.016c-1.348,5-2.092,9.197-2.299,12.816
	c-0.225,4.121,0.42,7.633,1.92,10.402c1.646,3.076,4.275,5.279,7.822,6.551c2.973,1.078,6.605,1.598,11.107,1.598
	c7.83,0,14.148-2.008,18.758-5.738c4.52-3.654,7.828-9.143,9.832-16.096l0.326-1.354h0.43l2.266-8.238
	c1.32-4.916,1.949-8.75,1.937-12.191C289.646,63.801,288.803,60.525,287.164,57.939z M119.009,86.213l1.098-4.084
	c0.763,1.463,1.715,2.801,2.877,4.084H119.009z M160.639,78.107c-0.67-1.125-1.465-2.178-2.389-3.207h3.25L160.639,78.107z"/>
<path fill="#603813" d="M57.928,47.267c0.609,0.489,1.271,0.517,1.999,0.9c2.429,1.301,5.641,1.713,9.818,1.713
	c3.896,0,7.292-0.748,10.092-2.019c2.371-1.073,4.414-2.562,6.15-4.283c0.314,0.544,0.66,1.049,1.078,1.553
	c2.554,3.074,6.879,4.552,13.216,4.552c2.577,0,5.025-0.331,7.29-0.95c2.371-0.651,4.527-1.673,6.427-3.013
	c0.968-0.688,1.871-1.468,2.696-2.303c0.499,1.451,1.284,2.461,1.969,3.105c1.371,1.307,3.19,2.107,5.388,2.38
	c1.387,0.175,3.027,0.26,4.994,0.26c1.062,0,10.131-0.148,10.131-0.148l4.361-19.496h-4.525l2.6-7.386h4.521l4.596-16.251h-4.527
	l2.713-11.82h-21.229l-2.714,11.82h-3.829l-0.449,1.288c-2.566-1.735-6.092-2.809-10.547-2.809c-2.779,0-5.353,0.261-7.657,0.943
	c-2.359,0.701-4.463,1.677-6.256,2.941c-0.925,0.648-1.776,1.359-2.554,2.146c-1.035-1.683-2.495-3.123-4.365-4.173
	c-2.439-1.379-5.678-2.051-9.896-2.051c-3.912,0-7.329,0.672-10.172,2.011c-2.804,1.317-5.19,3.097-7.085,5.284
	c-1.805,2.08-3.271,4.46-4.357,7.083c-0.975,2.351-1.805,3.979-2.454,6.41c-0.354,1.331-0.664,3.086-0.936,3.086h-6.529
	l9.599-35.458h-21.62l-14.72,57.621H57.36L57.928,47.267z"/>
<g>
	<path fill="#FCEE21" d="M51.341-1.258l-9.597,35.827h14.599l-2.595,9.689H27.291L39.489-1.258H51.341z"/>
	<path fill="#FCEE21" d="M86.958,33.674c-0.899,2.168-2.086,4.088-3.556,5.767c-1.469,1.682-3.302,3.023-5.505,4.02
		c-2.202,0.999-4.92,1.495-8.148,1.495c-3.357,0-5.891-0.456-7.604-1.369c-1.709-0.913-2.834-2.188-3.374-3.822
		c-0.539-1.637-0.652-3.552-0.34-5.739c0.312-2.191,0.801-4.537,1.475-7.047c0.601-2.253,1.354-4.457,2.25-6.629
		c0.898-2.168,2.092-4.104,3.564-5.802c1.476-1.702,3.316-3.067,5.532-4.112c2.21-1.038,4.932-1.561,8.16-1.561
		c3.359,0,5.885,0.477,7.587,1.434c1.694,0.956,2.812,2.262,3.35,3.921c0.531,1.656,0.646,3.586,0.336,5.769
		c-0.312,2.189-0.801,4.54-1.473,7.042C88.61,29.298,87.859,31.507,86.958,33.674z M70.063,32.369
		c-0.284,1.38-0.406,2.475-0.371,3.281c0.037,0.81,0.219,1.362,0.546,1.657c0.327,0.296,0.805,0.448,1.442,0.448
		c0.636,0,1.208-0.152,1.714-0.448c0.504-0.295,0.981-0.848,1.433-1.657c0.449-0.807,0.904-1.901,1.354-3.281
		c0.46-1.387,0.975-3.158,1.558-5.327c0.582-2.165,1.017-3.951,1.305-5.351c0.295-1.403,0.432-2.508,0.411-3.315
		c-0.016-0.809-0.199-1.36-0.544-1.659c-0.341-0.295-0.833-0.443-1.472-0.443s-1.199,0.148-1.681,0.443
		c-0.487,0.299-0.962,0.851-1.436,1.659c-0.473,0.808-0.939,1.912-1.398,3.315c-0.459,1.399-0.98,3.186-1.562,5.351
		C70.781,29.213,70.35,30.984,70.063,32.369z"/>
	<path fill="#FCEE21" d="M99.581,35.458c-0.029,0.598,0.05,1.085,0.245,1.467c0.337,0.809,1.036,1.212,2.1,1.212
		c0.893,0,1.734-0.256,2.532-0.771c0.794-0.507,1.318-1.231,1.568-2.161c0.274-1.021,0.072-1.812-0.611-2.36
		c-0.678-0.553-1.579-1.042-2.698-1.467c-1.12-0.426-2.327-0.872-3.625-1.338c-1.298-0.468-2.458-1.104-3.471-1.916
		c-1.019-0.804-1.759-1.878-2.234-3.22c-0.468-1.336-0.407-3.089,0.167-5.256c0.41-1.531,1.066-2.942,1.967-4.243
		c0.895-1.292,2.039-2.431,3.43-3.408c1.386-0.979,3.016-1.738,4.886-2.297c1.872-0.552,3.971-0.827,6.311-0.827
		c8.627,0,11.972,3.611,10.036,10.837h-9.944c0.401-1.487,0.403-2.497,0.015-3.028c-0.392-0.527-1.071-0.8-2.051-0.8
		c-0.852,0-1.612,0.239-2.291,0.701c-0.679,0.47-1.131,1.13-1.358,1.977c-0.263,0.981-0.045,1.716,0.654,2.201
		c0.695,0.486,1.61,0.928,2.739,1.306c1.13,0.385,2.348,0.791,3.66,1.213c1.31,0.427,2.476,1.027,3.498,1.815
		c1.02,0.785,1.764,1.847,2.239,3.186c0.467,1.347,0.407,3.116-0.186,5.325c-0.46,1.7-1.192,3.25-2.204,4.653
		c-1.014,1.402-2.242,2.612-3.683,3.636c-1.441,1.015-3.091,1.779-4.947,2.296c-1.863,0.505-3.87,0.761-6.041,0.761
		c-4.804,0-8.001-0.953-9.587-2.868c-1.592-1.913-1.883-4.758-0.87-8.539h10.07C99.72,34.226,99.614,34.866,99.581,35.458z"/>
	<path fill="#FCEE21" d="M128.586,9.769l2.713-10.138h11.482L140.06,9.769h4.527l-2.068,7.712h-4.521l-4.406,16.445
		c-0.264,0.984-0.227,1.672,0.109,2.075c0.342,0.404,0.975,0.606,1.908,0.606h1.789l-2.057,7.65c-1.061,0-2.129,0.032-3.207,0.09
		c-1.082,0.064-2.105,0.097-3.086,0.097c-1.746,0-3.21-0.073-4.402-0.223c-1.196-0.146-2.104-0.52-2.729-1.116
		c-0.631-0.593-0.968-1.473-1.013-2.644c-0.051-1.169,0.181-2.712,0.697-4.622l4.919-18.359h-3.824l2.062-7.714L128.586,9.769
		L128.586,9.769z"/>
	<path fill="#FCEE21" d="M-31.029,54.511l3.611-13.559h42.002l-3.617,13.559h-12.67l-13.695,51.065h-16.839l13.699-51.065H-31.029z"
		/>
	<path fill="#FCEE21" d="M23.95,56.613l-2.086,7.778h0.184c1.692-2.953,3.745-5.201,6.151-6.74c2.399-1.537,4.812-2.306,7.224-2.306
		h2.623l-4.078,15.201c-0.688-0.117-1.36-0.211-2.003-0.27c-0.649-0.061-1.303-0.09-1.969-0.09c-2.897,0-5.318,0.631-7.25,1.896
		c-1.938,1.266-3.349,3.533-4.22,6.789l-7.153,26.701h-16.29L8.202,56.608L23.95,56.613L23.95,56.613z"/>
	<path fill="#FCEE21" d="M46.334,90.277c-0.71,2.654-0.73,4.42-0.062,5.303c0.671,0.867,1.578,1.312,2.728,1.312
		c1.448,0,2.74-0.592,3.865-1.766c1.129-1.182,2.139-3.422,3.031-6.75h14.66c-1.737,6.037-4.488,10.576-8.264,13.627
		c-3.777,3.051-9.037,4.58-15.795,4.58c-3.923,0-7.095-0.447-9.517-1.316c-2.419-0.877-4.173-2.324-5.259-4.346
		c-1.089-2.021-1.546-4.66-1.365-7.926c0.175-3.256,0.893-7.213,2.135-11.852c1.262-4.711,2.722-8.688,4.374-11.941
		c1.659-3.27,3.607-5.92,5.846-7.971c2.244-2.055,4.799-3.545,7.674-4.48c2.875-0.934,6.156-1.405,9.835-1.405
		c3.259,0,6.003,0.393,8.239,1.18c2.231,0.784,3.932,2.094,5.097,3.932c1.164,1.848,1.756,4.258,1.771,7.246
		c0.015,2.982-0.579,6.711-1.771,11.18l-1.332,4.975H48.056L46.334,90.277z M60.554,67.111c-0.312-1.207-1.344-1.82-3.09-1.82
		c-1.692,0-3.013,0.607-3.97,1.82c-0.958,1.205-1.788,3.104-2.483,5.695l-0.581,2.18h8.958l0.587-2.18
		C60.675,70.215,60.864,68.318,60.554,67.111z"/>
	<path fill="#FCEE21" d="M94.805,102.953c0.116-0.904,0.26-1.877,0.41-2.893h-0.181c-1.488,2.17-3.357,3.799-5.607,4.879
		c-2.254,1.084-4.649,1.641-7.175,1.641c-2.482,0-4.488-0.32-6.043-0.959c-1.55-0.635-2.696-1.582-3.445-2.846
		c-0.748-1.271-1.128-2.781-1.139-4.527c-0.016-1.75,0.26-3.684,0.825-5.795c0.616-2.289,1.379-4.281,2.283-5.975
		c0.901-1.689,2.038-3.146,3.396-4.393c1.355-1.236,3.025-2.293,5.013-3.162c1.983-0.883,4.353-1.627,7.111-2.221l6.839-1.539
		c1.862-0.42,3.266-1.041,4.209-1.852c0.941-0.822,1.615-1.988,2.02-3.484c0.812-3.02-0.175-4.535-2.952-4.535
		c-1.569,0-2.833,0.447-3.79,1.314c-0.955,0.881-1.815,2.617-2.567,5.209H79.886c0.956-3.562,2.349-6.416,4.193-8.557
		c1.841-2.129,3.854-3.799,6.038-4.973c2.19-1.176,4.42-1.96,6.698-2.354c2.276-0.393,4.352-0.589,6.223-0.589
		c2.835,0,5.385,0.227,7.649,0.682c2.261,0.451,4.094,1.267,5.502,2.439c1.404,1.18,2.299,2.777,2.696,4.801
		c0.392,2.02,0.159,4.633-0.699,7.83l-6.403,23.896c-0.613,2.289-1.062,4.316-1.353,6.062c-0.284,1.752-0.271,3.256,0.055,4.527
		H94.739C94.656,104.732,94.679,103.859,94.805,102.953z M95.689,93.902c1.137-1.326,2.074-3.35,2.801-6.064l1.574-5.885h-0.176
		c-0.664,0.666-1.511,1.074-2.551,1.221c-1.032,0.158-2.232,0.502-3.584,1.045c-1.43,0.605-2.514,1.398-3.266,2.393
		c-0.754,1-1.343,2.307-1.779,3.941c-0.438,1.635-0.419,2.93,0.041,3.889c0.466,0.969,1.301,1.449,2.509,1.449
		C93.073,95.891,94.549,95.229,95.689,93.902z"/>
	<path fill="#FCEE21" d="M187.5,56.613l-8.656,32.305c-0.545,2.061-0.646,3.535-0.281,4.436c0.361,0.904,1.268,1.363,2.715,1.363
		c1.445,0,2.592-0.459,3.441-1.363c0.848-0.9,1.543-2.375,2.094-4.436l8.654-32.305h16.293l-13.123,48.963h-15.75l1.605-5.98h-0.182
		c-3.3,4.654-7.874,6.984-13.73,6.984c-1.805,0-3.43-0.176-4.885-0.506c-1.451-0.33-2.615-0.998-3.496-1.992
		c-0.881-0.994-1.42-2.352-1.621-4.072c-0.209-1.717,0.037-3.881,0.732-6.473l9.896-36.928L187.5,56.613L187.5,56.613z"/>
	<path fill="#FCEE21" d="M233.572,56.613l-2.09,7.778h0.184c1.699-2.953,3.748-5.201,6.156-6.74
		c2.396-1.537,4.807-2.306,7.223-2.306h2.623l-4.07,15.201c-0.695-0.117-1.369-0.211-2.012-0.27c-0.652-0.061-1.303-0.09-1.971-0.09
		c-2.893,0-5.312,0.631-7.244,1.896c-1.941,1.266-3.35,3.533-4.219,6.789l-7.158,26.701h-16.289l13.119-48.964L233.572,56.613
		L233.572,56.613z"/>
	<path fill="#FCEE21" d="M255.957,90.277c-0.705,2.654-0.736,4.42-0.064,5.303c0.674,0.867,1.578,1.312,2.734,1.312
		c1.443,0,2.732-0.592,3.857-1.766c1.135-1.182,2.141-3.422,3.037-6.75h14.66c-1.736,6.037-4.494,10.576-8.271,13.627
		c-3.771,3.051-9.037,4.58-15.793,4.58c-3.927,0-7.095-0.447-9.515-1.316c-2.428-0.877-4.172-2.324-5.262-4.346
		s-1.543-4.66-1.367-7.926c0.185-3.256,0.894-7.213,2.144-11.852c1.256-4.711,2.721-8.688,4.373-11.941
		c1.657-3.27,3.604-5.92,5.848-7.971c2.24-2.055,4.795-3.545,7.67-4.48c2.878-0.934,6.15-1.405,9.837-1.405
		c3.262,0,5.997,0.393,8.231,1.18c2.235,0.784,3.938,2.094,5.104,3.932c1.162,1.848,1.754,4.258,1.769,7.246
		c0.012,2.982-0.576,6.711-1.771,11.18l-1.332,4.975H257.68L255.957,90.277z M270.174,67.111c-0.309-1.207-1.336-1.82-3.088-1.82
		c-1.695,0-3.016,0.607-3.973,1.82c-0.957,1.205-1.785,3.104-2.479,5.695l-0.584,2.18h8.959l0.584-2.18
		C270.295,70.215,270.484,68.318,270.174,67.111z"/>
</g>
<path fill="#FCEE21" d="M161.635,70.729c2.666-9.953-1.748-15.062-13.203-15.356l1.598-5.97c0.215-0.794-0.262-1.616-1.062-1.827
	c-0.816-0.22-1.627,0.254-1.846,1.047l-1.816,6.781c-2.5,0.135-4.797,0.501-6.883,1.118c-2.652,0.785-4.965,1.867-6.938,3.261
	c-1.973,1.385-3.592,3-4.867,4.844c-1.281,1.838-2.211,3.842-2.792,6.012c-0.822,3.08-0.903,5.572-0.238,7.471
	c0.667,1.9,1.723,3.428,3.167,4.57c1.443,1.148,3.086,2.057,4.932,2.711c1.814,0.654,3.512,1.287,5.08,1.885l-2.506,9.355
	c-0.703-0.271-1.234-0.742-1.527-1.463c-0.279-0.537-0.395-1.238-0.346-2.076c0.041-0.846,0.195-1.748,0.453-2.719h-14.298
	c-1.44,5.371-1.031,9.406,1.229,12.131c2.061,2.467,6.015,3.803,11.835,4.029l-1.811,6.754c-0.211,0.795,0.262,1.613,1.08,1.822
	c0.801,0.219,1.623-0.254,1.834-1.047l2.016-7.529c2.568-0.088,4.99-0.43,7.236-1.045c2.633-0.721,4.977-1.812,7.029-3.256
	c2.045-1.447,3.783-3.164,5.23-5.16c1.438-1.994,2.479-4.197,3.123-6.609c0.838-3.137,0.922-5.658,0.262-7.559
	c-0.664-1.902-1.727-3.402-3.178-4.525c-1.455-1.113-3.107-1.971-4.959-2.576c-1.871-0.604-3.6-1.182-5.201-1.727
	c-0.271-0.086-0.521-0.184-0.771-0.273l2.248-8.395c0.795,0.156,1.402,0.49,1.791,1.021c0.553,0.758,0.545,2.188-0.021,4.295h14.121
	v0.005H161.635z M140.664,89.377c0.959,0.787,1.258,1.898,0.863,3.34c-0.354,1.334-1.098,2.361-2.227,3.088
	c-0.623,0.398-1.266,0.68-1.934,0.854l2.156-8.068C139.939,88.846,140.324,89.102,140.664,89.377z M140.373,72.219
	c-0.992-0.691-1.303-1.732-0.932-3.115c0.324-1.207,0.965-2.139,1.928-2.805c0.375-0.262,0.771-0.455,1.18-0.605l-1.812,6.762
	C140.613,72.375,140.484,72.303,140.373,72.219z"/>
</svg>
